<svg baseProfile="tiny" height="128" overflow="scroll" width="128" xmlns="http://www.w3.org/2000/svg"><path d="M22.8 58.2v3c0 11.4 7.9 21 18.6 23.5 2-1.4 4.5-2.2 7.1-2.2 3 0 5.8 1.1 8 2.9h19.1c13.3 0 24.1-10.8 24.1-24.2v-3H22.8zm0-1v1h35v-36c-19.3 0-35 15.7-35 35" fill="#7ACCCE"/><path d="M57.8 55.3c-.3 0-.6-.3-.6-.6V22.2c0-.3.3-.6.6-.6s.6.3.6.6v32.5c0 .3-.2.6-.6.6m-2 2.9c0 .3-.3.6-.6.6H22.7c-.3 0-.6-.3-.6-.6s.3-.6.6-.6h32.5c.3 0 .6.3.6.6m44.7 0c0 .3-.3.6-.6.6H56.7c-.3 0-.6-.3-.6-.6s.3-.6.6-.6h43.2c.3 0 .6.3.6.6m-8.6 22c0 .3-.3.6-.6.6H31.4c-.3 0-.6-.3-.6-.6s.3-.6.6-.6h59.9c.3 0 .6.3.6.6m-36-24c-.2.2-.6.2-.8 0l-23-23c-.2-.2-.2-.6 0-.8.2-.2.6-.2.8 0l23 23c.2.2.2.6 0 .8" fill="#F7B2B8"/><path d="M97 59.9c-.3.1-.5.1-.8-.1-.5-.3-.7-.9-.5-1.4l7.1-14.1c.1-.2.3-.4.6-.5.3-.1.5-.1.8.1.5.3.7.9.5 1.4l-7.1 14.1c-.1.3-.4.4-.6.5" fill="#F7B2B8"/><path d="M79.3 97.6c-.2.1-.4.1-.5-.1L66.2 80.9c-.1-.2-.1-.4.1-.5.2-.1.4-.1.5.1l12.5 16.7c.2.1.1.3 0 .4" fill="#7ACCCE"/><path d="M61.3 58.2c0-1.9-1.5-3.4-3.4-3.4s-3.4 1.5-3.4 3.4 1.5 3.4 3.4 3.4c1.8.1 3.4-1.5 3.4-3.4" fill="#F7B2B8"/><path d="M60.2 58.2c0-1.3-1-2.3-2.3-2.3-1.3 0-2.3 1-2.3 2.3 0 1.3 1 2.3 2.3 2.3 1.2.1 2.3-1 2.3-2.3" fill="#EBF3E1"/><path d="M98.7 58.8c0-1.1-.9-1.9-1.9-1.9-1.1 0-1.9.9-1.9 1.9 0 1.1.9 1.9 1.9 1.9 1 0 1.9-.9 1.9-1.9" fill="#F7B2B8"/><path d="M98.1 58.8c0-.7-.6-1.3-1.3-1.3-.7 0-1.3.6-1.3 1.3 0 .7.6 1.3 1.3 1.3.7 0 1.3-.6 1.3-1.3" fill="#7ACCCE"/><path d="M105.9 44.7c0-1.1-.9-1.9-1.9-1.9-1.1 0-1.9.9-1.9 1.9 0 1.1.9 1.9 1.9 1.9 1 0 1.9-.9 1.9-1.9" fill="#F7B2B8"/><path d="M105.3 44.7c0-.7-.6-1.3-1.3-1.3-.7 0-1.3.6-1.3 1.3 0 .7.6 1.3 1.3 1.3.7 0 1.3-.6 1.3-1.3" fill="#7ACCCE"/><path d="M78.3 90c-3.6 0-6.6 3-6.6 6.6 0 3.6 3 6.6 6.6 6.6 3.6 0 6.6-3 6.6-6.6 0-3.6-2.9-6.6-6.6-6.6m0 16.4c-5.4 0-9.8-4.4-9.8-9.8s4.4-9.8 9.8-9.8 9.8 4.4 9.8 9.8-4.4 9.8-9.8 9.8z" fill="#F7B2B8"/><path d="M78.3 94.2c-1.4 0-2.5 1.1-2.5 2.5s1.1 2.5 2.5 2.5 2.5-1.1 2.5-2.5-1.1-2.5-2.5-2.5" fill="#F7B2B8"/><path d="M47 97.1c.2.1.4.1.5-.1L60 80.3c.1-.2.1-.4-.1-.5-.2-.1-.4-.1-.5.1L47 96.6c-.2.1-.1.4 0 .5" fill="#7ACCCE"/><path d="M48.5 87.4c4.2 0 7.7 3.4 7.7 7.7 0 4.2-3.4 7.7-7.7 7.7-4.2 0-7.7-3.4-7.7-7.7 0-4.3 3.5-7.7 7.7-7.7m0 19c6.3 0 11.4-5.1 11.4-11.4 0-6.3-5.1-11.3-11.4-11.3-6.3 0-11.3 5.1-11.3 11.3-.1 6.3 5 11.4 11.3 11.4z" fill="#F7B2B8"/><path d="M48.5 92.1c1.6 0 2.9 1.3 2.9 2.9 0 1.6-1.3 2.9-2.9 2.9-1.6 0-2.9-1.3-2.9-2.9 0-1.6 1.3-2.9 2.9-2.9m-17-12.3c2.8 2.3 6.2 4 9.8 4.9 2-1.4 4.5-2.2 7.1-2.2 3 0 5.8 1.1 8 2.9h19.1c5.9 0 11.2-2.1 15.4-5.6H31.5z" fill="#F7B2B8"/><path d="M99.7 58.8h-1c0 1-.9 1.9-1.9 1.9-1 0-1.9-.8-1.9-1.9H63.7v20.8h27.5c5.2-4.4 8.5-11 8.5-18.4v-2.4zm-10 22c-3.7 2.6-8.1 4.3-12.9 4.5 4.8-.2 9.2-1.8 12.9-4.5zm-12.9 4.6h-.2.2zm-.2 0zm0 0zm-.1 0zm0 0zm0 0s-.1 0 0 0c-.1 0 0 0 0 0zm-.1 0zm-.1 0zm0 0zm0 0s-.1 0 0 0c-.1 0 0 0 0 0zm-.1 0zm0 0zm0 0c-.1 0-.1 0 0 0-.1 0-.1 0 0 0zm-.1 0zm0 0s-.1 0 0 0c-.1 0 0 0 0 0zm-.1 0zm0 0zm0 0c-.1 0-.1 0 0 0-.1 0-.1 0 0 0zm-.1 0zm0 0zm-.1 0zm0 0zm-.1 0zm0 0zm0 0zm-.1 0zm0 0z" fill="#71B8BC"/><path d="M99.9 57.6h-1.4l-.1.2c.2.3.3.6.3 1h1.2c.3 0 .6-.3.6-.6s-.3-.6-.6-.6m-4.7 0H63.7v1.2h31.2c-.1-.4.1-.8.3-1.2zm-3.9 22H63.7v.2H91c-.4.3-.8.7-1.3 1h1.6c.3 0 .6-.3.6-.6s-.3-.6-.6-.6" fill="#F496A7"/><path d="M102.3 45.6l-5.7 11.3h.2c.7 0 1.3.4 1.6.9l.1-.2 5.6-11.1h-.1c-.8.1-1.4-.3-1.7-.9" fill="#F496A7"/><path d="M70.6 85.4h-1l2.7 3.6c.2-.2.4-.3.6-.5l-2.3-3.1zm4.2 5.7c-.2.1-.4.3-.6.4l2.5 3.3c.2-.2.4-.3.6-.4l-2.5-3.3z" fill="#71B8BC"/><path d="M96.8 56.9h-.2c-.5 0-1 .3-1.3.8-.2.3-.4.7-.4 1.1 0 1 .9 1.9 1.9 1.9 1 0 1.9-.8 1.9-1.9 0-.4-.1-.7-.3-1-.3-.5-.9-.9-1.6-.9m0 3.2c-.7 0-1.3-.6-1.3-1.3 0-.7.6-1.3 1.3-1.3.7 0 1.3.6 1.3 1.3 0 .7-.6 1.3-1.3 1.3z" fill="#F496A7"/><path d="M96.8 57.5c-.7 0-1.3.6-1.3 1.3 0 .7.6 1.3 1.3 1.3.7 0 1.3-.6 1.3-1.3 0-.7-.6-1.3-1.3-1.3" fill="#EBF3E1"/><path d="M104 42.7c-1.1 0-1.9.9-1.9 1.9 0 .3.1.7.2.9.3.6.9 1 1.7 1h.1c1-.1 1.8-.9 1.8-1.9 0-1-.9-1.9-1.9-1.9m0 3.3c-.7 0-1.3-.6-1.3-1.3 0-.7.6-1.3 1.3-1.3.7 0 1.3.6 1.3 1.3 0 .7-.6 1.3-1.3 1.3z" fill="#F496A7"/><path d="M104 43.4c-.7 0-1.3.6-1.3 1.3 0 .7.6 1.3 1.3 1.3.7 0 1.3-.6 1.3-1.3 0-.8-.6-1.3-1.3-1.3" fill="#EBF3E1"/><path d="M78.3 86.9c-2 0-3.9.6-5.4 1.6-.2.1-.4.3-.6.5-2.3 1.8-3.7 4.6-3.7 7.7 0 5.4 4.4 9.8 9.8 9.8s9.8-4.4 9.8-9.8c-.1-5.4-4.5-9.8-9.9-9.8m-3.5 4.2c1-.6 2.2-1 3.5-1 3.6 0 6.6 3 6.6 6.6 0 3.6-3 6.6-6.6 6.6-3.6 0-6.6-3-6.6-6.6 0-2.1 1-3.9 2.5-5.1.2-.3.4-.4.6-.5z" fill="#F496A7"/><path d="M78.3 94.2c-.4 0-.7.1-1 .2-.2.1-.5.3-.6.4-.5.5-.8 1.1-.8 1.8 0 1.4 1.1 2.5 2.5 2.5s2.5-1.1 2.5-2.5c-.1-1.3-1.2-2.4-2.6-2.4M91 79.8H63.7v5.6h12.2c4.8-.2 9.2-1.9 12.9-4.5 1.3-.4 1.7-.7 2.2-1.1" fill="#F496A7"/></svg>