<svg id="Layer_1" class="svg" version="1.1" viewBox="0 0 500 500" xml:space="preserve" xmlns="http://www.w3.org/2000/svg"><style/><g id="pinwheel"><path d="M252.63 463.55c-5.26 0-9.52-4.26-9.52-9.52V204.29h19.05v249.73c0 5.26-4.27 9.53-9.53 9.53z" fill="#f0e3ce"/><g class="animate"><path fill="#ff9000" d="M250 135.27V41.69h98.82z"/><path fill="#7191f0" d="M250 135.27h93.58v98.82z"/><path fill="#15aa78" d="M250 135.27v93.59h-98.82z"/><path fill="#f26e91" d="M250 135.27h-93.58V36.45z"/><path fill="#ffe940" d="M250 41.69L200.59 83.1 250 135.27z"/><path fill="#91edff" d="M343.58 135.27l-41.41-49.41L250 135.27z"/><path fill="#c4ffc9" d="M250 228.86l49.41-41.41L250 135.27z"/><path fill="#ffb5c5" d="M156.42 135.27l41.41 49.41L250 135.27z"/><circle cx="250" cy="135.27" r="12.16" fill="#cd4a77"/></g></g></svg>