<svg xmlns="http://www.w3.org/2000/svg" xmlns:xlink="http://www.w3.org/1999/xlink" width="52.963" height="52.963" version="1.0"><defs><linearGradient id="a"><stop offset="0" stop-color="#0f0"/><stop offset="1" stop-color="#226122"/></linearGradient><linearGradient id="b"><stop offset="0" stop-color="#fff" stop-opacity=".727"/><stop offset="1" stop-color="#fff"/></linearGradient><linearGradient id="c"><stop offset="0" stop-color="#fff"/><stop offset="1" stop-color="#fff" stop-opacity="0"/></linearGradient><linearGradient xlink:href="#a" id="d" gradientUnits="userSpaceOnUse" x1="314.565" y1="369.98" x2="332.025" y2="387.439"/><linearGradient xlink:href="#b" id="e" gradientUnits="userSpaceOnUse" gradientTransform="matrix(.99995 0 0 1.00005 -223.457 -147.82)" x1="433.728" y1="377.197" x2="405.649" y2="379.767"/><linearGradient xlink:href="#c" id="f" gradientUnits="userSpaceOnUse" gradientTransform="matrix(1.9519 0 0 1.84182 -426.217 -488.523)" x1="302.736" y1="377.953" x2="311.274" y2="390.783"/></defs><path style="marker:none" d="M52.963 26.482a26.482 26.482 0 1 1-52.963 0 26.482 26.482 0 1 1 52.963 0z" fill="#226122" overflow="visible"/><path style="marker:none" d="M339.538 378.058a13.967 13.967 0 1 1-27.934 0 13.967 13.967 0 1 1 27.934 0z" transform="translate(-537.142 -628.007) scale(1.73118)" fill="url(#d)" stroke="#fff" stroke-width=".325" overflow="visible"/><path style="marker:none" d="M173.978 230.811c-.223.223-.18.573.042.796l13.528 14.188 22.532-25.487a.509.509 0 0 0 0-.754l-5.027-5.027c-.223-.223-.587-.278-.796-.042l-16.83 18.882-7.583-7.584a.609.609 0 0 0-.838 0l-5.028 5.028z" fill="url(#e)" overflow="visible" transform="translate(-164.604 -201.816)"/><path style="marker:none" d="M191.07 204.132c-13.348 0-24.176 10.828-24.176 24.175 0 6.412 2.617 12.143 6.696 16.472 2.119-17.5 16.89-31.108 34.958-31.108.488 0 .94.1 1.422.119-4.421-5.75-11.092-9.658-18.9-9.658z" fill="url(#f)" overflow="visible" transform="translate(-164.604 -201.816)"/></svg>