<svg viewBox="0 0 64 64" xmlns="http://www.w3.org/2000/svg"><defs><style>.cls-2{fill:none}.cls-2,.cls-5{stroke:#4c241d;stroke-linecap:round;stroke-linejoin:round;stroke-width:2px}.cls-3{fill:#4c241d}.cls-5{fill:#9dc1e4}</style></defs><g id="delivery"><circle cx="33.5" cy="32.5" r="21.5" fill="#dbeffc"/><circle class="cls-2" cx="53.5" cy="10.5" r="2.5"/><path class="cls-3" d="M55.632 20.5a1.132 1.132 0 1 1-1.132-1.132 1.132 1.132 0 0 1 1.132 1.132zm-12-9a1.132 1.132 0 1 1-1.132-1.132 1.132 1.132 0 0 1 1.132 1.132zm-14-4A1.132 1.132 0 1 1 28.5 6.368 1.132 1.132 0 0 1 29.632 7.5zm6-3A1.132 1.132 0 1 1 34.5 3.368 1.132 1.132 0 0 1 35.632 4.5zm-23 11a1.132 1.132 0 1 1-1.132-1.132 1.132 1.132 0 0 1 1.132 1.132z"/><g class="circle"><circle cx="31.5" cy="18.5" r="6.5" fill="#a9ba5a" stroke="#4c241d" stroke-linecap="round" stroke-linejoin="round" stroke-width="2"/><path class="cls-2" d="M34.03 15.97l-5 5"/><circle class="cls-3" cx="29.53" cy="16.47" r="1.132"/><circle class="cls-3" cx="33.53" cy="20.47" r="1.132"/></g><path fill="#c1dbdc" stroke="#4c241d" stroke-linecap="round" stroke-linejoin="round" stroke-width="2" d="M10 31h27v29H10z"/><path class="cls-5" d="M37 31h14v29H37zM4 39h28l5-8H10l-6 8z"/><path class="cls-5" d="M56 39H42l-5-8h14l5 8z"/><rect height="5" rx="2.5" width="14" x="16" y="51" fill="#fc8c29" stroke="#4c241d" stroke-linecap="round" stroke-linejoin="round" stroke-width="2"/><path class="cls-2" d="M16 48h7m-7-3h3m26.068-18.74s.009-4.403 5.893-5.476M19.744 7.489a5.645 5.645 0 0 1 2.6 5.407M15 16s5 1 5 5M7 22s8-1 11 4m23-3s1-5 7-9"/></g></svg>