<svg xmlns="http://www.w3.org/2000/svg" width="283.027" height="413.955" viewBox="0 0 74.884 109.526"><path d="M29.521 10.401c0-4.368 3.552-7.92 7.92-7.92 4.369 0 7.92 3.552 7.92 7.92s-3.551 7.92-7.92 7.92c-4.368 0-7.92-3.552-7.92-7.92" fill="#ffec00"/><path d="M28.801 28.883h17.281a4.326 4.326 0 0 1 4.322 4.32 4.325 4.325 0 0 1-4.322 4.319h-17.28a4.325 4.325 0 0 1-4.32-4.32c0-2.382 1.94-4.32 4.32-4.32" fill="#ffadcb"/><path d="M25.201 40.402h24.483a4.325 4.325 0 0 1 4.32 4.32 4.324 4.324 0 0 1-4.32 4.32H25.201a4.326 4.326 0 0 1-4.32-4.32c0-2.381 1.94-4.32 4.32-4.32" fill="#fcd7b9"/><path d="M21.601 51.923h31.683a4.325 4.325 0 0 1 4.32 4.32 4.324 4.324 0 0 1-4.32 4.32H21.6a4.326 4.326 0 0 1-4.32-4.32c0-2.382 1.94-4.32 4.32-4.32" fill="#f74252"/><path d="M18.001 63.444h38.883a4.326 4.326 0 0 1 4.32 4.319c0 2.383-1.94 4.32-4.32 4.32H18a4.327 4.327 0 0 1-4.32-4.32A4.327 4.327 0 0 1 18 63.444" fill="#66d4ca"/><path d="M14.401 74.964h46.083a4.324 4.324 0 0 1 4.32 4.32 4.324 4.324 0 0 1-4.32 4.32H14.4a4.326 4.326 0 0 1-4.32-4.32c0-2.381 1.94-4.32 4.32-4.32" fill="#ffec00"/><path d="M10.8 86.485h53.284a4.325 4.325 0 0 1 4.32 4.32 4.325 4.325 0 0 1-4.32 4.32H10.8a4.326 4.326 0 0 1-4.32-4.32c0-2.383 1.94-4.32 4.32-4.32" fill="#8ccdca"/><path d="M67.684 106.645H7.201a4.327 4.327 0 0 1-4.32-4.32c0-2.382 1.94-4.32 4.32-4.32h60.483a4.324 4.324 0 0 1 4.32 4.32 4.324 4.324 0 0 1-4.32 4.32" fill="#ff696f"/><path d="M67.684 106.645H7.201a4.327 4.327 0 0 1-4.32-4.32c0-2.382 1.94-4.32 4.32-4.32h60.483a4.324 4.324 0 0 1 4.32 4.32 4.324 4.324 0 0 1-4.32 4.32m-56.883-20.16h53.283a4.325 4.325 0 0 1 4.32 4.32 4.325 4.325 0 0 1-4.32 4.32H10.8a4.326 4.326 0 0 1-4.32-4.32c0-2.383 1.94-4.32 4.32-4.32m3.6-11.52h46.084a4.324 4.324 0 0 1 4.32 4.318 4.324 4.324 0 0 1-4.32 4.32H14.4a4.326 4.326 0 0 1-4.32-4.32c0-2.38 1.94-4.319 4.32-4.319m3.6-11.52h38.883a4.326 4.326 0 0 1 4.32 4.319c0 2.383-1.94 4.32-4.32 4.32H18a4.327 4.327 0 0 1-4.32-4.32A4.327 4.327 0 0 1 18 63.444m3.6-11.521h31.684a4.325 4.325 0 0 1 4.32 4.32 4.324 4.324 0 0 1-4.32 4.32H21.6a4.326 4.326 0 0 1-4.32-4.32c0-2.382 1.94-4.32 4.32-4.32m3.6-11.52h24.483a4.325 4.325 0 0 1 4.32 4.32 4.324 4.324 0 0 1-4.32 4.32H25.201a4.326 4.326 0 0 1-4.32-4.32c0-2.382 1.94-4.32 4.32-4.32m3.6-11.52h17.281a4.325 4.325 0 0 1 4.322 4.32 4.325 4.325 0 0 1-4.322 4.319h-17.28a4.326 4.326 0 0 1-4.32-4.32c0-2.382 1.94-4.32 4.32-4.32m.72-18.48c0-4.369 3.551-7.921 7.92-7.921 4.367 0 7.92 3.552 7.92 7.92s-3.553 7.92-7.92 7.92c-4.369 0-7.92-3.552-7.92-7.92M69.573 95.41c1.052-1.255 1.71-2.846 1.71-4.605 0-3.313-2.259-6.08-5.31-6.916 1.051-1.255 1.71-2.846 1.71-4.605 0-3.313-2.259-6.08-5.31-6.915 1.052-1.255 1.71-2.846 1.71-4.605 0-3.312-2.259-6.08-5.31-6.915 1.053-1.256 1.71-2.846 1.71-4.605 0-3.313-2.259-6.08-5.31-6.916 1.051-1.251 1.71-2.846 1.71-4.604 0-3.313-2.258-6.082-5.311-6.916 1.053-1.252 1.71-2.846 1.71-4.605 0-3.971-3.228-7.2-7.2-7.2h-5.761v-5.204c4.56-1.262 7.922-5.439 7.922-10.397C48.244 4.446 43.4-.4 37.442-.4c-5.954 0-10.8 4.846-10.8 10.801 0 4.958 3.36 9.135 7.92 10.397v5.204h-5.76c-3.97 0-7.2 3.229-7.2 7.2 0 1.759.66 3.353 1.712 4.605-3.052.834-5.313 3.603-5.313 6.916 0 1.758.66 3.353 1.713 4.604-3.052.836-5.313 3.603-5.313 6.916 0 1.759.66 3.35 1.712 4.605-3.05.835-5.312 3.603-5.312 6.915 0 1.76.66 3.35 1.712 4.605-3.05.835-5.312 3.602-5.312 6.915 0 1.76.66 3.35 1.713 4.605-3.053.836-5.314 3.603-5.314 6.916 0 1.762.662 3.35 1.714 4.605C2.262 96.244 0 99.012 0 102.325c0 3.968 3.233 7.2 7.2 7.2h60.484c3.972 0 7.2-3.232 7.2-7.2 0-3.313-2.258-6.08-5.31-6.916" fill="#00354b"/></svg>