<svg width="208" height="208" fill="none" xmlns="http://www.w3.org/2000/svg"><g clip-path="url(#clip0_1_40)" fill="#CCDAE2"><path opacity=".6" d="M8 16A8 8 0 1 0 8 0a8 8 0 0 0 0 16zm32 0a8 8 0 1 0 0-16 8 8 0 0 0 0 16zm32 0a8 8 0 1 0 0-16 8 8 0 0 0 0 16zm32 0a8 8 0 1 0 0-16 8 8 0 0 0 0 16zm32 0a8 8 0 1 0 0-16 8 8 0 0 0 0 16zm32 0a8 8 0 1 0 0-16 8 8 0 0 0 0 16zm32 0a8 8 0 1 0 0-16 8 8 0 0 0 0 16zM8 48a8 8 0 1 0 0-16 8 8 0 0 0 0 16zm32 0a8 8 0 1 0 0-16 8 8 0 0 0 0 16zm32 0a8 8 0 1 0 0-16 8 8 0 0 0 0 16zm32 0a8 8 0 1 0 0-16 8 8 0 0 0 0 16zm32 0a8 8 0 1 0 0-16 8 8 0 0 0 0 16zm32 0a8 8 0 1 0 0-16 8 8 0 0 0 0 16zm32 0a8 8 0 1 0 0-16 8 8 0 0 0 0 16zM8 80a8 8 0 1 0 0-16 8 8 0 0 0 0 16zm32 0a8 8 0 1 0 0-16 8 8 0 0 0 0 16zm32 0a8 8 0 1 0 0-16 8 8 0 0 0 0 16zm32 0a8 8 0 1 0 0-16 8 8 0 0 0 0 16zm32 0a8 8 0 1 0 0-16 8 8 0 0 0 0 16zm32 0a8 8 0 1 0 0-16 8 8 0 0 0 0 16zm32 0a8 8 0 1 0 0-16 8 8 0 0 0 0 16zM8 112a8 8 0 1 0 0-16 8 8 0 0 0 0 16zm32 0a8 8 0 1 0 0-16 8 8 0 0 0 0 16zm32 0a8 8 0 1 0 0-16 8 8 0 0 0 0 16zm32 0a8 8 0 1 0 0-16 8 8 0 0 0 0 16zm32 0a8 8 0 1 0 0-16 8 8 0 0 0 0 16zm32 0a8 8 0 1 0 0-16 8 8 0 0 0 0 16zm32 0a8 8 0 1 0 0-16 8 8 0 0 0 0 16zM8 144a8 8 0 1 0 0-16 8 8 0 0 0 0 16zm32 0a8 8 0 1 0 0-16 8 8 0 0 0 0 16zm32 0a8 8 0 1 0 0-16 8 8 0 0 0 0 16zm32 0a8 8 0 1 0 0-16 8 8 0 0 0 0 16zm32 0a8 8 0 1 0 0-16 8 8 0 0 0 0 16zm32 0a8 8 0 1 0 0-16 8 8 0 0 0 0 16zm32 0a8 8 0 1 0 0-16 8 8 0 0 0 0 16zM8 176a8 8 0 1 0 0-16 8 8 0 0 0 0 16zm32 0a8 8 0 1 0 0-16 8 8 0 0 0 0 16zm32 0a8 8 0 1 0 0-16 8 8 0 0 0 0 16zm32 0a8 8 0 1 0 0-16 8 8 0 0 0 0 16zm32 0a8 8 0 1 0 0-16 8 8 0 0 0 0 16zm32 0a8 8 0 1 0 0-16 8 8 0 0 0 0 16zm32 0a8 8 0 1 0 0-16 8 8 0 0 0 0 16zM8 208a8 8 0 1 0 0-16 8 8 0 0 0 0 16zm32 0a8 8 0 1 0 0-16 8 8 0 0 0 0 16zm32 0a8 8 0 1 0 0-16 8 8 0 0 0 0 16zm32 0a8 8 0 1 0 0-16 8 8 0 0 0 0 16zm32 0a8 8 0 1 0 0-16 8 8 0 0 0 0 16zm32 0a8 8 0 1 0 0-16 8 8 0 0 0 0 16zm32 0a8 8 0 1 0 0-16 8 8 0 0 0 0 16z"/></g><defs><clipPath id="clip0_1_40"><path fill="#fff" d="M0 0h208v208H0z"/></clipPath></defs></svg>