<?xml version="1.0" ?><!DOCTYPE svg  PUBLIC '-//W3C//DTD SVG 1.1 Tiny//EN'  'http://www.w3.org/Graphics/SVG/1.1/DTD/svg11-tiny.dtd'><svg baseProfile="tiny" height="128px" id="Layer_1" overflow="scroll" version="1.1" viewBox="0 0 128 128" width="128px" xml:space="preserve" xmlns="http://www.w3.org/2000/svg" xmlns:xlink="http://www.w3.org/1999/xlink"><g><path d="M22.8,58.2v3c0,11.4,7.9,21,18.6,23.5c2-1.4,4.5-2.2,7.1-2.2c3,0,5.8,1.1,8,2.9h19.1   c13.3,0,24.1-10.8,24.1-24.2v-3H22.8z" fill="#7ACCCE"/><path d="M22.8,57.2c0,0.3,0,0.6,0,1h35v-36C38.5,22.2,22.8,37.9,22.8,57.2" fill="#7ACCCE"/><path d="M57.8,55.3L57.8,55.3c-0.3,0-0.6-0.3-0.6-0.6V22.2c0-0.3,0.3-0.6,0.6-0.6h0c0.3,0,0.6,0.3,0.6,0.6v32.5   C58.4,55,58.2,55.3,57.8,55.3" fill="#F7B2B8"/><path d="M55.8,58.2L55.8,58.2c0,0.3-0.3,0.6-0.6,0.6H22.7c-0.3,0-0.6-0.3-0.6-0.6v0c0-0.3,0.3-0.6,0.6-0.6h32.5   C55.5,57.6,55.8,57.9,55.8,58.2" fill="#F7B2B8"/><path d="M100.5,58.2L100.5,58.2c0,0.3-0.3,0.6-0.6,0.6H56.7c-0.3,0-0.6-0.3-0.6-0.6v0c0-0.3,0.3-0.6,0.6-0.6h43.2   C100.2,57.6,100.5,57.9,100.5,58.2" fill="#F7B2B8"/><path d="M91.9,80.2L91.9,80.2c0,0.3-0.3,0.6-0.6,0.6H31.4c-0.3,0-0.6-0.3-0.6-0.6v0c0-0.3,0.3-0.6,0.6-0.6h59.9   C91.6,79.6,91.9,79.9,91.9,80.2" fill="#F7B2B8"/><path d="M55.9,56.2L55.9,56.2c-0.2,0.2-0.6,0.2-0.8,0l-23-23c-0.2-0.2-0.2-0.6,0-0.8l0,0c0.2-0.2,0.6-0.2,0.8,0   l23,23C56.1,55.6,56.1,56,55.9,56.2" fill="#F7B2B8"/><path d="M97,59.9c-0.3,0.1-0.5,0.1-0.8-0.1c-0.5-0.3-0.7-0.9-0.5-1.4l7.1-14.1c0.1-0.2,0.3-0.4,0.6-0.5   c0.3-0.1,0.5-0.1,0.8,0.1c0.5,0.3,0.7,0.9,0.5,1.4l-7.1,14.1C97.5,59.7,97.2,59.8,97,59.9" fill="#F7B2B8"/><path d="M79.3,97.6L79.3,97.6c-0.2,0.1-0.4,0.1-0.5-0.1L66.2,80.9c-0.1-0.2-0.1-0.4,0.1-0.5l0,0   c0.2-0.1,0.4-0.1,0.5,0.1l12.5,16.7C79.5,97.3,79.4,97.5,79.3,97.6" fill="#7ACCCE"/><path d="M61.3,58.2c0-1.9-1.5-3.4-3.4-3.4c-1.9,0-3.4,1.5-3.4,3.4c0,1.9,1.5,3.4,3.4,3.4   C59.7,61.7,61.3,60.1,61.3,58.2" fill="#F7B2B8"/><path d="M60.2,58.2c0-1.3-1-2.3-2.3-2.3c-1.3,0-2.3,1-2.3,2.3c0,1.3,1,2.3,2.3,2.3C59.1,60.6,60.2,59.5,60.2,58.2" fill="#EBF3E1"/><path d="M98.7,58.8c0-1.1-0.9-1.9-1.9-1.9c-1.1,0-1.9,0.9-1.9,1.9c0,1.1,0.9,1.9,1.9,1.9   C97.8,60.7,98.7,59.8,98.7,58.8" fill="#F7B2B8"/><path d="M98.1,58.8c0-0.7-0.6-1.3-1.3-1.3c-0.7,0-1.3,0.6-1.3,1.3c0,0.7,0.6,1.3,1.3,1.3   C97.5,60.1,98.1,59.5,98.1,58.8" fill="#7ACCCE"/><path d="M105.9,44.7c0-1.1-0.9-1.9-1.9-1.9c-1.1,0-1.9,0.9-1.9,1.9c0,1.1,0.9,1.9,1.9,1.9   C105,46.6,105.9,45.7,105.9,44.7" fill="#F7B2B8"/><path d="M105.3,44.7c0-0.7-0.6-1.3-1.3-1.3c-0.7,0-1.3,0.6-1.3,1.3c0,0.7,0.6,1.3,1.3,1.3   C104.7,46,105.3,45.4,105.3,44.7" fill="#7ACCCE"/><path d="M78.3,90c-3.6,0-6.6,3-6.6,6.6c0,3.6,3,6.6,6.6,6.6c3.6,0,6.6-3,6.6-6.6C84.9,93,82,90,78.3,90 M78.3,106.4   c-5.4,0-9.8-4.4-9.8-9.8c0-5.4,4.4-9.8,9.8-9.8c5.4,0,9.8,4.4,9.8,9.8C88.1,102,83.7,106.4,78.3,106.4z" fill="#F7B2B8"/><path d="M78.3,94.2c-1.4,0-2.5,1.1-2.5,2.5c0,1.4,1.1,2.5,2.5,2.5c1.4,0,2.5-1.1,2.5-2.5   C80.8,95.3,79.7,94.2,78.3,94.2" fill="#F7B2B8"/><path d="M47,97.1L47,97.1c0.2,0.1,0.4,0.1,0.5-0.1l12.5-16.7c0.1-0.2,0.1-0.4-0.1-0.5l0,0c-0.2-0.1-0.4-0.1-0.5,0.1   L47,96.6C46.8,96.7,46.9,97,47,97.1" fill="#7ACCCE"/><path d="M48.5,87.4c4.2,0,7.7,3.4,7.7,7.7c0,4.2-3.4,7.7-7.7,7.7c-4.2,0-7.7-3.4-7.7-7.7   C40.8,90.8,44.3,87.4,48.5,87.4 M48.5,106.4c6.3,0,11.4-5.1,11.4-11.4c0-6.3-5.1-11.3-11.4-11.3c-6.3,0-11.3,5.1-11.3,11.3   C37.1,101.3,42.2,106.4,48.5,106.4z" fill="#F7B2B8"/><path d="M48.5,92.1c1.6,0,2.9,1.3,2.9,2.9c0,1.6-1.3,2.9-2.9,2.9c-1.6,0-2.9-1.3-2.9-2.9   C45.6,93.4,46.9,92.1,48.5,92.1" fill="#F7B2B8"/><path d="M31.5,79.8c2.8,2.3,6.2,4,9.8,4.9c2-1.4,4.5-2.2,7.1-2.2c3,0,5.8,1.1,8,2.9h19.1c5.9,0,11.2-2.1,15.4-5.6   H31.5z" fill="#F7B2B8"/><path d="M99.7,58.8h-1c0,1-0.9,1.9-1.9,1.9c-1,0-1.9-0.8-1.9-1.9H63.7v20.8h27.5c5.2-4.4,8.5-11,8.5-18.4V58.8z    M89.7,80.8L89.7,80.8c-3.7,2.6-8.1,4.3-12.9,4.5C81.6,85.1,86,83.5,89.7,80.8z M76.8,85.4c-0.1,0-0.1,0-0.2,0   C76.7,85.4,76.7,85.4,76.8,85.4z M76.6,85.4C76.6,85.4,76.6,85.4,76.6,85.4C76.6,85.4,76.6,85.4,76.6,85.4z M76.6,85.4   C76.6,85.4,76.6,85.4,76.6,85.4C76.6,85.4,76.6,85.4,76.6,85.4z M76.5,85.4C76.5,85.4,76.5,85.4,76.5,85.4   C76.5,85.4,76.5,85.4,76.5,85.4z M76.5,85.4C76.5,85.4,76.5,85.4,76.5,85.4C76.5,85.4,76.5,85.4,76.5,85.4z M76.5,85.4   C76.5,85.4,76.4,85.4,76.5,85.4C76.4,85.4,76.5,85.4,76.5,85.4z M76.4,85.4C76.4,85.4,76.4,85.4,76.4,85.4   C76.4,85.4,76.4,85.4,76.4,85.4z M76.3,85.4C76.3,85.4,76.3,85.4,76.3,85.4C76.3,85.4,76.3,85.4,76.3,85.4z M76.3,85.4   C76.3,85.4,76.3,85.4,76.3,85.4C76.3,85.4,76.3,85.4,76.3,85.4z M76.3,85.4C76.3,85.4,76.2,85.4,76.3,85.4   C76.2,85.4,76.3,85.4,76.3,85.4z M76.2,85.4C76.2,85.4,76.2,85.4,76.2,85.4C76.2,85.4,76.2,85.4,76.2,85.4z M76.2,85.4   C76.2,85.4,76.2,85.4,76.2,85.4C76.2,85.4,76.2,85.4,76.2,85.4z M76.2,85.4C76.1,85.4,76.1,85.4,76.2,85.4   C76.1,85.4,76.1,85.4,76.2,85.4z M76.1,85.4C76.1,85.4,76.1,85.4,76.1,85.4C76.1,85.4,76.1,85.4,76.1,85.4z M76.1,85.4   C76.1,85.4,76,85.4,76.1,85.4C76,85.4,76.1,85.4,76.1,85.4z M76,85.4C76,85.4,76,85.4,76,85.4C76,85.4,76,85.4,76,85.4z M76,85.4   C76,85.4,76,85.4,76,85.4C76,85.4,76,85.4,76,85.4z M76,85.4C75.9,85.4,75.9,85.4,76,85.4C75.9,85.4,75.9,85.4,76,85.4z M75.9,85.4   C75.9,85.4,75.9,85.4,75.9,85.4C75.9,85.4,75.9,85.4,75.9,85.4z M75.9,85.4C75.9,85.4,75.9,85.4,75.9,85.4   C75.9,85.4,75.9,85.4,75.9,85.4z M75.8,85.4L75.8,85.4L75.8,85.4z M75.8,85.4L75.8,85.4C75.8,85.4,75.8,85.4,75.8,85.4z M75.7,85.4   C75.7,85.4,75.7,85.4,75.7,85.4C75.7,85.4,75.7,85.4,75.7,85.4z M75.7,85.4C75.7,85.4,75.7,85.4,75.7,85.4   C75.7,85.4,75.7,85.4,75.7,85.4z M75.7,85.4C75.7,85.4,75.7,85.4,75.7,85.4C75.7,85.4,75.7,85.4,75.7,85.4z M75.6,85.4   C75.6,85.4,75.6,85.4,75.6,85.4C75.6,85.4,75.6,85.4,75.6,85.4z M75.6,85.4C75.6,85.4,75.6,85.4,75.6,85.4   C75.6,85.4,75.6,85.4,75.6,85.4z" fill="#71B8BC"/><path d="M99.9,57.6h-1.4l-0.1,0.2c0.2,0.3,0.3,0.6,0.3,1c0,0,0,0,0,0h1.2c0.3,0,0.6-0.3,0.6-0.6v0   C100.5,57.9,100.2,57.6,99.9,57.6 M95.2,57.6H63.7v1.2h31.2c0,0,0,0,0,0C94.8,58.4,95,58,95.2,57.6z" fill="#F496A7"/><path d="M91.3,79.6H63.7v0.2H91c-0.4,0.3-0.8,0.7-1.3,1h1.6c0.3,0,0.6-0.3,0.6-0.6v0C91.9,79.9,91.6,79.6,91.3,79.6   " fill="#F496A7"/><path d="M102.3,45.6l-5.7,11.3c0.1,0,0.1,0,0.2,0c0.7,0,1.3,0.4,1.6,0.9l0.1-0.2l5.6-11.1c0,0-0.1,0-0.1,0   C103.2,46.6,102.6,46.2,102.3,45.6" fill="#F496A7"/><path d="M70.6,85.4h-1l2.7,3.6c0.2-0.2,0.4-0.3,0.6-0.5L70.6,85.4z M74.8,91.1c-0.2,0.1-0.4,0.3-0.6,0.4l2.5,3.3   c0.2-0.2,0.4-0.3,0.6-0.4L74.8,91.1z" fill="#71B8BC"/><path d="M96.8,56.9c-0.1,0-0.1,0-0.2,0c-0.5,0-1,0.3-1.3,0.8c-0.2,0.3-0.4,0.7-0.4,1.1c0,0,0,0,0,0   c0,1,0.9,1.9,1.9,1.9c1,0,1.9-0.8,1.9-1.9c0,0,0,0,0,0c0-0.4-0.1-0.7-0.3-1C98.1,57.3,97.5,56.9,96.8,56.9 M96.8,60.1   c-0.7,0-1.3-0.6-1.3-1.3c0-0.7,0.6-1.3,1.3-1.3c0.7,0,1.3,0.6,1.3,1.3C98.1,59.5,97.5,60.1,96.8,60.1z" fill="#F496A7"/><path d="M96.8,57.5c-0.7,0-1.3,0.6-1.3,1.3c0,0.7,0.6,1.3,1.3,1.3c0.7,0,1.3-0.6,1.3-1.3   C98.1,58.1,97.5,57.5,96.8,57.5" fill="#EBF3E1"/><path d="M104,42.7c-1.1,0-1.9,0.9-1.9,1.9c0,0.3,0.1,0.7,0.2,0.9c0.3,0.6,0.9,1,1.7,1c0,0,0.1,0,0.1,0   c1-0.1,1.8-0.9,1.8-1.9C105.9,43.6,105,42.7,104,42.7 M104,46c-0.7,0-1.3-0.6-1.3-1.3c0-0.7,0.6-1.3,1.3-1.3c0.7,0,1.3,0.6,1.3,1.3   C105.3,45.4,104.7,46,104,46z" fill="#F496A7"/><path d="M104,43.4c-0.7,0-1.3,0.6-1.3,1.3c0,0.7,0.6,1.3,1.3,1.3c0.7,0,1.3-0.6,1.3-1.3   C105.3,43.9,104.7,43.4,104,43.4" fill="#EBF3E1"/><path d="M78.3,86.9c-2,0-3.9,0.6-5.4,1.6c-0.2,0.1-0.4,0.3-0.6,0.5c-2.3,1.8-3.7,4.6-3.7,7.7c0,5.4,4.4,9.8,9.8,9.8   c5.4,0,9.8-4.4,9.8-9.8C88.1,91.3,83.7,86.9,78.3,86.9 M74.8,91.1c1-0.6,2.2-1,3.5-1c3.6,0,6.6,3,6.6,6.6c0,3.6-3,6.6-6.6,6.6   c-3.6,0-6.6-3-6.6-6.6c0-2.1,1-3.9,2.5-5.1C74.4,91.3,74.6,91.2,74.8,91.1z" fill="#F496A7"/><path d="M78.3,94.2c-0.4,0-0.7,0.1-1,0.2c-0.2,0.1-0.5,0.3-0.6,0.4c-0.5,0.5-0.8,1.1-0.8,1.8c0,1.4,1.1,2.5,2.5,2.5   c1.4,0,2.5-1.1,2.5-2.5C80.8,95.3,79.7,94.2,78.3,94.2" fill="#F496A7"/><path d="M91,79.8H63.7v5.6h11.9c0,0,0,0,0,0c0,0,0,0,0,0c0,0,0,0,0,0c0,0,0,0,0,0c0,0,0,0,0,0c0,0,0,0,0,0   c0,0,0,0,0,0c0,0,0,0,0,0c0,0,0,0,0,0c0,0,0,0,0,0c0,0,0,0,0,0h0c0,0,0,0,0,0h0c0,0,0,0,0,0c0,0,0,0,0,0c0,0,0,0,0,0c0,0,0,0,0,0   c0,0,0,0,0,0c0,0,0,0,0,0c0,0,0,0,0,0c0,0,0,0,0,0c0,0,0,0,0,0c0,0,0,0,0,0c0,0,0,0,0,0c0,0,0,0,0,0c0,0,0,0,0,0c0,0,0,0,0,0   c0,0,0,0,0,0c0,0,0,0,0,0s0,0,0,0c0,0,0,0,0,0c0,0,0,0,0,0c0,0,0,0,0,0h0c0,0,0,0,0,0c0,0,0,0,0,0c0,0,0,0,0,0c0,0,0,0,0,0   c0,0,0,0,0,0h0c0,0,0.1,0,0.1,0c0,0,0,0,0,0c0,0,0,0,0,0c0,0,0,0,0,0c0,0,0,0,0,0h0c0,0,0,0,0,0c0,0,0,0,0,0c0,0,0,0,0,0   c0,0,0,0,0,0c0,0,0,0,0,0c0.1,0,0.1,0,0.2,0c4.8-0.2,9.2-1.9,12.9-4.5C90.1,80.5,90.5,80.2,91,79.8" fill="#F496A7"/></g></svg>