<?xml version="1.0" encoding="UTF-8" standalone="no"?>
<!-- Created with Inkscape (http://www.inkscape.org/) -->

<svg
   xmlns:dc="http://purl.org/dc/elements/1.1/"
   xmlns:cc="http://creativecommons.org/ns#"
   xmlns:rdf="http://www.w3.org/1999/02/22-rdf-syntax-ns#"
   xmlns:svg="http://www.w3.org/2000/svg"
   xmlns="http://www.w3.org/2000/svg"
   xmlns:sodipodi="http://sodipodi.sourceforge.net/DTD/sodipodi-0.dtd"
   xmlns:inkscape="http://www.inkscape.org/namespaces/inkscape"
   width="74.88414mm"
   height="109.52555mm"
   viewBox="0 0 74.884138 109.52555"
   version="1.1"
   id="svg3505"
   inkscape:version="0.92.3 (2405546, 2018-03-11)"
   sodipodi:docname="baby_15.svg">
  <defs
     id="defs3499" />
  <sodipodi:namedview
     id="base"
     pagecolor="#ffffff"
     bordercolor="#666666"
     borderopacity="1.0"
     inkscape:pageopacity="0.0"
     inkscape:pageshadow="2"
     inkscape:zoom="0.35"
     inkscape:cx="358.69905"
     inkscape:cy="180.70764"
     inkscape:document-units="mm"
     inkscape:current-layer="g5302"
     showgrid="false"
     fit-margin-top="-0.4"
     fit-margin-left="0"
     fit-margin-right="0"
     fit-margin-bottom="0"
     inkscape:window-width="1853"
     inkscape:window-height="1025"
     inkscape:window-x="67"
     inkscape:window-y="27"
     inkscape:window-maximized="1" />
  <metadata
     id="metadata3502">
    <rdf:RDF>
      <cc:Work
         rdf:about="">
        <dc:format>image/svg+xml</dc:format>
        <dc:type
           rdf:resource="http://purl.org/dc/dcmitype/StillImage" />
        <dc:title></dc:title>
      </cc:Work>
    </rdf:RDF>
  </metadata>
  <g
     inkscape:label="Capa 1"
     inkscape:groupmode="layer"
     id="layer1"
     transform="translate(-10.927543,-26.643826)">
    <g
       transform="matrix(0.35277777,0,0,-0.35277777,-499.64434,1710.8768)"
       id="g5302">
      <g
         transform="translate(-39.21289,503.44957)"
         id="g5591">
        <g
           transform="translate(1570.1855,4241.2705)"
           id="g734">
          <path
             inkscape:connector-curvature="0"
             id="path736"
             style="fill:#ffec00;fill-opacity:1;fill-rule:nonzero;stroke:none"
             d="m 0,0 c 0,12.382 10.068,22.451 22.452,22.451 12.381,0 22.45,-10.069 22.45,-22.451 0,-12.381 -10.069,-22.451 -22.45,-22.451 C 10.068,-22.451 0,-12.381 0,0" />
        </g>
        <g
           transform="translate(1568.1445,4188.8818)"
           id="g738">
          <path
             inkscape:connector-curvature="0"
             id="path740"
             style="fill:#ffadcb;fill-opacity:1;fill-rule:nonzero;stroke:none"
             d="m 0,0 h 48.985 c 6.756,0 12.252,-5.492 12.252,-12.244 0,-6.755 -5.496,-12.244 -12.252,-12.244 H 0 c -6.743,0 -12.244,5.489 -12.244,12.244 C -12.244,-5.492 -6.743,0 0,0" />
        </g>
        <g
           transform="translate(1557.9395,4156.2275)"
           id="g742">
          <path
             inkscape:connector-curvature="0"
             id="path744"
             style="fill:#fcd7b9;fill-opacity:1;fill-rule:nonzero;stroke:none"
             d="M 0,0 H 10.205 59.19 69.401 c 6.75,0 12.245,-5.494 12.245,-12.246 0,-6.755 -5.495,-12.244 -12.245,-12.244 L 0,-24.49 c -6.745,0 -12.246,5.489 -12.246,12.244 C -12.246,-5.494 -6.745,0 0,0" />
        </g>
        <g
           transform="translate(1547.7354,4123.5713)"
           id="g746">
          <path
             inkscape:connector-curvature="0"
             id="path748"
             style="fill:#f74252;fill-opacity:1;fill-rule:nonzero;stroke:none"
             d="m 0,0 h 10.204 69.401 10.204 c 6.753,0 12.246,-5.494 12.246,-12.246 0,-6.755 -5.493,-12.246 -12.246,-12.246 H 0 c -6.745,0 -12.246,5.491 -12.246,12.246 C -12.246,-5.494 -6.745,0 0,0" />
        </g>
        <g
           transform="translate(1537.5303,4090.9131)"
           id="g750">
          <path
             inkscape:connector-curvature="0"
             id="path752"
             style="fill:#66d4ca;fill-opacity:1;fill-rule:nonzero;stroke:none"
             d="m 0,0 h 10.205 89.809 10.204 c 6.75,0 12.248,-5.494 12.248,-12.242 0,-6.757 -5.498,-12.248 -12.248,-12.248 L 0,-24.49 c -6.745,0 -12.247,5.491 -12.247,12.248 C -12.247,-5.494 -6.745,0 0,0" />
        </g>
        <g
           transform="translate(1527.3262,4058.2568)"
           id="g754">
          <path
             inkscape:connector-curvature="0"
             id="path756"
             style="fill:#ffec00;fill-opacity:1;fill-rule:nonzero;stroke:none"
             d="m 0,0 h 10.204 110.218 10.205 c 6.755,0 12.246,-5.494 12.246,-12.242 0,-6.757 -5.491,-12.248 -12.246,-12.248 L 0,-24.49 c -6.747,0 -12.246,5.491 -12.246,12.248 C -12.246,-5.494 -6.747,0 0,0" />
        </g>
        <g
           transform="translate(1517.1191,4025.6006)"
           id="g758">
          <path
             inkscape:connector-curvature="0"
             id="path760"
             style="fill:#8ccdca;fill-opacity:1;fill-rule:nonzero;stroke:none"
             d="m 0,0 h 10.207 130.627 10.204 c 6.753,0 12.247,-5.492 12.247,-12.244 0,-6.753 -5.494,-12.246 -12.247,-12.246 L 0,-24.49 c -6.745,0 -12.245,5.493 -12.245,12.246 C -12.245,-5.492 -6.745,0 0,0" />
        </g>
        <g
           transform="translate(1678.3643,3968.4541)"
           id="g762">
          <path
             inkscape:connector-curvature="0"
             id="path764"
             style="fill:#ff696f;fill-opacity:1;fill-rule:nonzero;stroke:none"
             d="m 0,0 h -171.449 c -6.748,0 -12.248,5.493 -12.248,12.246 0,6.752 5.5,12.244 12.248,12.244 H -161.245 -10.207 0 c 6.753,0 12.245,-5.492 12.245,-12.244 C 12.245,5.493 6.753,0 0,0" />
        </g>
        <g
           transform="translate(1678.3643,3968.4541)"
           id="g766">
          <path
             inkscape:connector-curvature="0"
             id="path768"
             style="fill:#00354b;fill-opacity:1;fill-rule:nonzero;stroke:none"
             d="m 0,0 h -171.449 c -6.748,0 -12.248,5.493 -12.248,12.246 0,6.752 5.5,12.244 12.248,12.244 H -161.245 -10.207 0 c 6.753,0 12.245,-5.492 12.245,-12.244 C 12.245,5.493 6.753,0 0,0 m -161.245,57.146 h 10.207 130.627 10.204 c 6.753,0 12.247,-5.492 12.247,-12.244 0,-6.753 -5.494,-12.246 -12.247,-12.246 h -151.038 c -6.745,0 -12.245,5.493 -12.245,12.246 0,6.752 5.5,12.244 12.245,12.244 m 10.207,32.657 h 10.204 110.218 10.205 c 6.755,0 12.246,-5.494 12.246,-12.242 0,-6.757 -5.491,-12.248 -12.246,-12.248 h -130.627 c -6.747,0 -12.246,5.491 -12.246,12.248 0,6.748 5.499,12.242 12.246,12.242 m 10.204,32.656 h 10.205 89.809 10.204 c 6.75,0 12.248,-5.494 12.248,-12.242 0,-6.757 -5.498,-12.248 -12.248,-12.248 h -110.218 c -6.745,0 -12.247,5.491 -12.247,12.248 0,6.748 5.502,12.242 12.247,12.242 m 10.205,32.658 h 10.204 69.401 10.204 c 6.753,0 12.246,-5.494 12.246,-12.246 0,-6.755 -5.493,-12.246 -12.246,-12.246 h -89.809 c -6.745,0 -12.246,5.491 -12.246,12.246 0,6.752 5.501,12.246 12.246,12.246 m 10.204,32.656 h 10.205 48.986 10.21 c 6.751,0 12.245,-5.494 12.245,-12.246 0,-6.755 -5.494,-12.244 -12.245,-12.244 h -69.401 c -6.745,0 -12.246,5.489 -12.246,12.244 0,6.752 5.501,12.246 12.246,12.246 m 10.205,32.655 h 48.986 c 6.755,0 12.251,-5.492 12.251,-12.244 0,-6.755 -5.496,-12.245 -12.251,-12.245 h -48.986 c -6.743,0 -12.244,5.49 -12.244,12.245 0,6.752 5.501,12.244 12.244,12.244 m 2.041,52.388 c 0,12.382 10.069,22.452 22.452,22.452 12.381,0 22.451,-10.07 22.451,-22.452 0,-12.38 -10.07,-22.451 -22.451,-22.451 -12.383,0 -22.452,10.071 -22.452,22.451 M 5.357,31.85 c 2.982,3.558 4.847,8.068 4.847,13.052 0,9.393 -6.403,17.237 -15.051,19.604 C -1.868,68.064 0,72.574 0,77.561 c 0,9.39 -6.403,17.234 -15.054,19.601 2.982,3.559 4.847,8.067 4.847,13.055 0,9.388 -6.401,17.234 -15.052,19.601 2.986,3.559 4.848,8.067 4.848,13.053 0,9.391 -6.402,17.234 -15.052,19.604 2.98,3.547 4.847,8.068 4.847,13.052 0,9.391 -6.399,17.239 -15.054,19.604 2.984,3.548 4.85,8.068 4.85,13.053 0,11.257 -9.154,20.41 -20.414,20.41 h -16.329 v 14.751 c 12.924,3.577 22.456,15.417 22.456,29.471 0,16.881 -13.731,30.618 -30.62,30.618 -16.877,0 -30.616,-13.737 -30.616,-30.618 0,-14.054 9.529,-25.894 22.453,-29.471 v -14.751 h -16.33 c -11.249,0 -20.409,-9.153 -20.409,-20.41 0,-4.985 1.872,-9.505 4.855,-13.053 -8.65,-2.365 -15.06,-10.213 -15.06,-19.604 0,-4.984 1.873,-9.505 4.855,-13.052 -8.65,-2.37 -15.059,-10.213 -15.059,-19.604 0,-4.986 1.87,-9.494 4.853,-13.053 -8.649,-2.367 -15.06,-10.213 -15.06,-19.601 0,-4.988 1.873,-9.496 4.855,-13.055 -8.648,-2.367 -15.059,-10.211 -15.059,-19.601 0,-4.987 1.872,-9.497 4.856,-13.055 -8.653,-2.367 -15.063,-10.211 -15.063,-19.604 0,-4.993 1.875,-9.494 4.858,-13.052 -8.652,-2.368 -15.063,-10.213 -15.063,-19.604 0,-11.25 9.163,-20.412 20.412,-20.412 L 0,-8.166 c 11.257,0 20.409,9.162 20.409,20.412 0,9.391 -6.4,17.236 -15.052,19.604" />
        </g>
      </g>
    </g>
  </g>
</svg>
