<svg width="208" height="208" viewBox="0 0 208 208" fill="none" xmlns="http://www.w3.org/2000/svg">
<g clip-path="url(#clip0_1_40)">
<g opacity="0.6">
<path opacity="0.6" d="M8 16C12.4183 16 16 12.4183 16 8C16 3.58172 12.4183 0 8 0C3.58172 0 0 3.58172 0 8C0 12.4183 3.58172 16 8 16Z" fill="#CCDAE2"/>
<path opacity="0.6" d="M40 16C44.4183 16 48 12.4183 48 8C48 3.58172 44.4183 0 40 0C35.5817 0 32 3.58172 32 8C32 12.4183 35.5817 16 40 16Z" fill="#CCDAE2"/>
<path opacity="0.6" d="M72 16C76.4183 16 80 12.4183 80 8C80 3.58172 76.4183 0 72 0C67.5817 0 64 3.58172 64 8C64 12.4183 67.5817 16 72 16Z" fill="#CCDAE2"/>
<path opacity="0.6" d="M104 16C108.418 16 112 12.4183 112 8C112 3.58172 108.418 0 104 0C99.5817 0 96 3.58172 96 8C96 12.4183 99.5817 16 104 16Z" fill="#CCDAE2"/>
<path opacity="0.6" d="M136 16C140.418 16 144 12.4183 144 8C144 3.58172 140.418 0 136 0C131.582 0 128 3.58172 128 8C128 12.4183 131.582 16 136 16Z" fill="#CCDAE2"/>
<path opacity="0.6" d="M168 16C172.418 16 176 12.4183 176 8C176 3.58172 172.418 0 168 0C163.582 0 160 3.58172 160 8C160 12.4183 163.582 16 168 16Z" fill="#CCDAE2"/>
<path opacity="0.6" d="M200 16C204.418 16 208 12.4183 208 8C208 3.58172 204.418 0 200 0C195.582 0 192 3.58172 192 8C192 12.4183 195.582 16 200 16Z" fill="#CCDAE2"/>
</g>
<g opacity="0.6">
<path opacity="0.6" d="M8 48C12.4183 48 16 44.4183 16 40C16 35.5817 12.4183 32 8 32C3.58172 32 0 35.5817 0 40C0 44.4183 3.58172 48 8 48Z" fill="#CCDAE2"/>
<path opacity="0.6" d="M40 48C44.4183 48 48 44.4183 48 40C48 35.5817 44.4183 32 40 32C35.5817 32 32 35.5817 32 40C32 44.4183 35.5817 48 40 48Z" fill="#CCDAE2"/>
<path opacity="0.6" d="M72 48C76.4183 48 80 44.4183 80 40C80 35.5817 76.4183 32 72 32C67.5817 32 64 35.5817 64 40C64 44.4183 67.5817 48 72 48Z" fill="#CCDAE2"/>
<path opacity="0.6" d="M104 48C108.418 48 112 44.4183 112 40C112 35.5817 108.418 32 104 32C99.5817 32 96 35.5817 96 40C96 44.4183 99.5817 48 104 48Z" fill="#CCDAE2"/>
<path opacity="0.6" d="M136 48C140.418 48 144 44.4183 144 40C144 35.5817 140.418 32 136 32C131.582 32 128 35.5817 128 40C128 44.4183 131.582 48 136 48Z" fill="#CCDAE2"/>
<path opacity="0.6" d="M168 48C172.418 48 176 44.4183 176 40C176 35.5817 172.418 32 168 32C163.582 32 160 35.5817 160 40C160 44.4183 163.582 48 168 48Z" fill="#CCDAE2"/>
<path opacity="0.6" d="M200 48C204.418 48 208 44.4183 208 40C208 35.5817 204.418 32 200 32C195.582 32 192 35.5817 192 40C192 44.4183 195.582 48 200 48Z" fill="#CCDAE2"/>
</g>
<g opacity="0.6">
<path opacity="0.6" d="M8 80C12.4183 80 16 76.4183 16 72C16 67.5817 12.4183 64 8 64C3.58172 64 0 67.5817 0 72C0 76.4183 3.58172 80 8 80Z" fill="#CCDAE2"/>
<path opacity="0.6" d="M40 80C44.4183 80 48 76.4183 48 72C48 67.5817 44.4183 64 40 64C35.5817 64 32 67.5817 32 72C32 76.4183 35.5817 80 40 80Z" fill="#CCDAE2"/>
<path opacity="0.6" d="M72 80C76.4183 80 80 76.4183 80 72C80 67.5817 76.4183 64 72 64C67.5817 64 64 67.5817 64 72C64 76.4183 67.5817 80 72 80Z" fill="#CCDAE2"/>
<path opacity="0.6" d="M104 80C108.418 80 112 76.4183 112 72C112 67.5817 108.418 64 104 64C99.5817 64 96 67.5817 96 72C96 76.4183 99.5817 80 104 80Z" fill="#CCDAE2"/>
<path opacity="0.6" d="M136 80C140.418 80 144 76.4183 144 72C144 67.5817 140.418 64 136 64C131.582 64 128 67.5817 128 72C128 76.4183 131.582 80 136 80Z" fill="#CCDAE2"/>
<path opacity="0.6" d="M168 80C172.418 80 176 76.4183 176 72C176 67.5817 172.418 64 168 64C163.582 64 160 67.5817 160 72C160 76.4183 163.582 80 168 80Z" fill="#CCDAE2"/>
<path opacity="0.6" d="M200 80C204.418 80 208 76.4183 208 72C208 67.5817 204.418 64 200 64C195.582 64 192 67.5817 192 72C192 76.4183 195.582 80 200 80Z" fill="#CCDAE2"/>
</g>
<g opacity="0.6">
<path opacity="0.6" d="M8 112C12.4183 112 16 108.418 16 104C16 99.5817 12.4183 96 8 96C3.58172 96 0 99.5817 0 104C0 108.418 3.58172 112 8 112Z" fill="#CCDAE2"/>
<path opacity="0.6" d="M40 112C44.4183 112 48 108.418 48 104C48 99.5817 44.4183 96 40 96C35.5817 96 32 99.5817 32 104C32 108.418 35.5817 112 40 112Z" fill="#CCDAE2"/>
<path opacity="0.6" d="M72 112C76.4183 112 80 108.418 80 104C80 99.5817 76.4183 96 72 96C67.5817 96 64 99.5817 64 104C64 108.418 67.5817 112 72 112Z" fill="#CCDAE2"/>
<path opacity="0.6" d="M104 112C108.418 112 112 108.418 112 104C112 99.5817 108.418 96 104 96C99.5817 96 96 99.5817 96 104C96 108.418 99.5817 112 104 112Z" fill="#CCDAE2"/>
<path opacity="0.6" d="M136 112C140.418 112 144 108.418 144 104C144 99.5817 140.418 96 136 96C131.582 96 128 99.5817 128 104C128 108.418 131.582 112 136 112Z" fill="#CCDAE2"/>
<path opacity="0.6" d="M168 112C172.418 112 176 108.418 176 104C176 99.5817 172.418 96 168 96C163.582 96 160 99.5817 160 104C160 108.418 163.582 112 168 112Z" fill="#CCDAE2"/>
<path opacity="0.6" d="M200 112C204.418 112 208 108.418 208 104C208 99.5817 204.418 96 200 96C195.582 96 192 99.5817 192 104C192 108.418 195.582 112 200 112Z" fill="#CCDAE2"/>
</g>
<g opacity="0.6">
<path opacity="0.6" d="M8 144C12.4183 144 16 140.418 16 136C16 131.582 12.4183 128 8 128C3.58172 128 0 131.582 0 136C0 140.418 3.58172 144 8 144Z" fill="#CCDAE2"/>
<path opacity="0.6" d="M40 144C44.4183 144 48 140.418 48 136C48 131.582 44.4183 128 40 128C35.5817 128 32 131.582 32 136C32 140.418 35.5817 144 40 144Z" fill="#CCDAE2"/>
<path opacity="0.6" d="M72 144C76.4183 144 80 140.418 80 136C80 131.582 76.4183 128 72 128C67.5817 128 64 131.582 64 136C64 140.418 67.5817 144 72 144Z" fill="#CCDAE2"/>
<path opacity="0.6" d="M104 144C108.418 144 112 140.418 112 136C112 131.582 108.418 128 104 128C99.5817 128 96 131.582 96 136C96 140.418 99.5817 144 104 144Z" fill="#CCDAE2"/>
<path opacity="0.6" d="M136 144C140.418 144 144 140.418 144 136C144 131.582 140.418 128 136 128C131.582 128 128 131.582 128 136C128 140.418 131.582 144 136 144Z" fill="#CCDAE2"/>
<path opacity="0.6" d="M168 144C172.418 144 176 140.418 176 136C176 131.582 172.418 128 168 128C163.582 128 160 131.582 160 136C160 140.418 163.582 144 168 144Z" fill="#CCDAE2"/>
<path opacity="0.6" d="M200 144C204.418 144 208 140.418 208 136C208 131.582 204.418 128 200 128C195.582 128 192 131.582 192 136C192 140.418 195.582 144 200 144Z" fill="#CCDAE2"/>
</g>
<g opacity="0.6">
<path opacity="0.6" d="M8 176C12.4183 176 16 172.418 16 168C16 163.582 12.4183 160 8 160C3.58172 160 0 163.582 0 168C0 172.418 3.58172 176 8 176Z" fill="#CCDAE2"/>
<path opacity="0.6" d="M40 176C44.4183 176 48 172.418 48 168C48 163.582 44.4183 160 40 160C35.5817 160 32 163.582 32 168C32 172.418 35.5817 176 40 176Z" fill="#CCDAE2"/>
<path opacity="0.6" d="M72 176C76.4183 176 80 172.418 80 168C80 163.582 76.4183 160 72 160C67.5817 160 64 163.582 64 168C64 172.418 67.5817 176 72 176Z" fill="#CCDAE2"/>
<path opacity="0.6" d="M104 176C108.418 176 112 172.418 112 168C112 163.582 108.418 160 104 160C99.5817 160 96 163.582 96 168C96 172.418 99.5817 176 104 176Z" fill="#CCDAE2"/>
<path opacity="0.6" d="M136 176C140.418 176 144 172.418 144 168C144 163.582 140.418 160 136 160C131.582 160 128 163.582 128 168C128 172.418 131.582 176 136 176Z" fill="#CCDAE2"/>
<path opacity="0.6" d="M168 176C172.418 176 176 172.418 176 168C176 163.582 172.418 160 168 160C163.582 160 160 163.582 160 168C160 172.418 163.582 176 168 176Z" fill="#CCDAE2"/>
<path opacity="0.6" d="M200 176C204.418 176 208 172.418 208 168C208 163.582 204.418 160 200 160C195.582 160 192 163.582 192 168C192 172.418 195.582 176 200 176Z" fill="#CCDAE2"/>
</g>
<g opacity="0.6">
<path opacity="0.6" d="M8 208C12.4183 208 16 204.418 16 200C16 195.582 12.4183 192 8 192C3.58172 192 0 195.582 0 200C0 204.418 3.58172 208 8 208Z" fill="#CCDAE2"/>
<path opacity="0.6" d="M40 208C44.4183 208 48 204.418 48 200C48 195.582 44.4183 192 40 192C35.5817 192 32 195.582 32 200C32 204.418 35.5817 208 40 208Z" fill="#CCDAE2"/>
<path opacity="0.6" d="M72 208C76.4183 208 80 204.418 80 200C80 195.582 76.4183 192 72 192C67.5817 192 64 195.582 64 200C64 204.418 67.5817 208 72 208Z" fill="#CCDAE2"/>
<path opacity="0.6" d="M104 208C108.418 208 112 204.418 112 200C112 195.582 108.418 192 104 192C99.5817 192 96 195.582 96 200C96 204.418 99.5817 208 104 208Z" fill="#CCDAE2"/>
<path opacity="0.6" d="M136 208C140.418 208 144 204.418 144 200C144 195.582 140.418 192 136 192C131.582 192 128 195.582 128 200C128 204.418 131.582 208 136 208Z" fill="#CCDAE2"/>
<path opacity="0.6" d="M168 208C172.418 208 176 204.418 176 200C176 195.582 172.418 192 168 192C163.582 192 160 195.582 160 200C160 204.418 163.582 208 168 208Z" fill="#CCDAE2"/>
<path opacity="0.6" d="M200 208C204.418 208 208 204.418 208 200C208 195.582 204.418 192 200 192C195.582 192 192 195.582 192 200C192 204.418 195.582 208 200 208Z" fill="#CCDAE2"/>
</g>
</g>
<defs>
<clipPath id="clip0_1_40">
<rect width="208" height="208" fill="white"/>
</clipPath>
</defs>
</svg>
