<svg xmlns="http://www.w3.org/2000/svg" viewBox="0 0 420.849 420.849"><g fill="#010202"><path d="M81.123 216.924c-17.161 0-31.125 13.959-31.125 31.12 0 17.166 13.959 31.131 31.125 31.131 17.155 0 31.12-13.959 31.12-31.131 0-17.156-13.965-31.12-31.12-31.12zm0 44.956c-7.631 0-13.831-6.205-13.831-13.837 0-7.62 6.199-13.825 13.831-13.825 7.626 0 13.825 6.205 13.825 13.825 0 7.626-6.199 13.837-13.825 13.837zm258.527-39.339c-15.612 0-28.308 12.702-28.308 28.308s12.702 28.32 28.308 28.32 28.308-12.713 28.308-28.32-12.696-28.308-28.308-28.308zm0 39.339c-6.083 0-11.019-4.948-11.019-11.031 0-6.071 4.936-11.019 11.019-11.019 6.071 0 11.019 4.948 11.019 11.019 0 6.083-4.948 11.031-11.019 11.031zm-219.153-4.505h177.544v17.295H120.497z"/><path d="M415.202 206.405l-8.19-8.179-15.641-7.48-105.95-10.041-54.3-39.031h-45.66l-57.996 9.867-67.63 31.253-16.136-5.157H0v14.075l13.441 20.165L0 220.981v30.689l12.079 12.073 12.224-12.219-7.02-7.02v-14.343l20.071-13.587-14.436-21.648h18.086l19.972 6.391 71.658-33.116 54.288-9.232h38.628l53.584 38.506 107.551 10.187 10.198 4.884 3.062 3.05 3.33 10.81-1.263 11.322-10.059 15.112 14.378 9.599 12.405-18.616 2.113-19.087z"/></g></svg>